<?xml version="1.0" standalone="no"?><!DOCTYPE svg PUBLIC "-//W3C//DTD SVG 1.1//EN" "http://www.w3.org/Graphics/SVG/1.1/DTD/svg11.dtd"><svg t="1608137617332" class="icon" viewBox="0 0 1024 1024" version="1.1" xmlns="http://www.w3.org/2000/svg" p-id="604" xmlns:xlink="http://www.w3.org/1999/xlink" width="200" height="200"><defs><style type="text/css"></style></defs><path d="M473.3 368.6c6.10000001 0 12.3-2.3 17-7L692.8 159.1c9.4-9.4 9.4-24.6 0-33.9-9.4-9.4-24.6-9.4-33.9 0l-202.40000001 202.4c-9.4 9.4-9.4 24.6 1e-8 33.90000001 4.6 4.8 10.7 7.10000001 16.8 7.09999999zM394.4 565c-29.6-29.6-29.6-77.8 0-107.5l23.1-23.1c9.4-9.4 9.4-24.6 0-33.9-9.4-9.4-24.6-9.4-33.9 0l-23.1 23.1c-48.3 48.3-48.3 127 0 175.4L658.8 897.4c4.7 4.7 10.8 7 17 7s12.3-2.3 17-7c9.4-9.4 9.4-24.6 0-33.9L394.4 565z" p-id="605"></path></svg>