<?xml version="1.0" standalone="no"?><!DOCTYPE svg PUBLIC "-//W3C//DTD SVG 1.1//EN" "http://www.w3.org/Graphics/SVG/1.1/DTD/svg11.dtd"><svg t="1607969628000" class="icon" viewBox="0 0 1024 1024" version="1.1" xmlns="http://www.w3.org/2000/svg" p-id="2395" xmlns:xlink="http://www.w3.org/1999/xlink" width="200" height="200"><defs><style type="text/css"></style></defs><path d="M550.7 655.4c-6.1 0-12.3 2.3-17 7L331.2 864.9c-9.4 9.4-9.4 24.6 0 33.9 9.4 9.4 24.6 9.4 33.9 0l202.4-202.4c9.4-9.4 9.4-24.6 0-33.9-4.6-4.8-10.7-7.1-16.8-7.1zM629.6 459c29.6 29.6 29.6 77.8 0 107.5l-23.1 23.1c-9.4 9.4-9.4 24.6 0 33.9 9.4 9.4 24.6 9.4 33.9 0l23.1-23.1c48.3-48.3 48.3-127 0-175.4L365.2 126.6c-4.7-4.7-10.8-7-17-7s-12.3 2.3-17 7c-9.4 9.4-9.4 24.6 0 33.9L629.6 459z" p-id="2396"></path></svg>